<svg width="50" height="50" viewBox="0 0 50 50" fill="none" xmlns="http://www.w3.org/2000/svg">
<g clip-path="url(#clip0_162_102)">
<rect width="50" height="50" rx="8" fill="#E4F4FC"/>
<path d="M30.7727 14.0999H26.075C25.6375 14.0999 25.2164 14.264 24.8938 14.5593L19.518 19.4812C19.5125 19.4866 19.507 19.4976 19.5016 19.503C18.5938 20.3562 18.6102 21.7179 19.3867 22.5655C20.0813 23.3257 21.5414 23.528 22.4547 22.7132C22.4602 22.7077 22.4711 22.7077 22.4766 22.7023L26.8461 18.6991C27.2016 18.3765 27.7594 18.3984 28.082 18.7538C28.4102 19.1093 28.3828 19.6616 28.0273 19.9898L26.6 21.2968L34.5625 27.7609C34.7211 27.8921 34.8633 28.0343 34.9945 28.1819V17.5999L32.0086 14.614C31.6859 14.2859 31.2375 14.0999 30.7727 14.0999ZM36.75 17.6109V29.8554C36.75 30.8234 37.532 31.6054 38.5 31.6054H42V17.6109H36.75ZM39.375 29.8554C38.8937 29.8554 38.5 29.4616 38.5 28.9804C38.5 28.4991 38.8937 28.1054 39.375 28.1054C39.8563 28.1054 40.25 28.4991 40.25 28.9804C40.25 29.4616 39.8563 29.8554 39.375 29.8554ZM7 31.5999H10.5C11.468 31.5999 12.25 30.8179 12.25 29.8499V17.6109H7V31.5999ZM9.625 28.1054C10.1063 28.1054 10.5 28.4991 10.5 28.9804C10.5 29.4616 10.1063 29.8554 9.625 29.8554C9.14375 29.8554 8.75 29.4616 8.75 28.9804C8.75 28.4937 9.14375 28.1054 9.625 28.1054ZM33.4633 29.1226L25.2984 22.4944L23.6578 23.9984C22.0336 25.4804 19.5453 25.3382 18.0961 23.7577C16.625 22.1499 16.7398 19.6616 18.3367 18.196L22.8102 14.0999H18.2273C17.7625 14.0999 17.3195 14.2859 16.9914 14.614L14 17.5999V29.8444H15.0008L19.95 34.3234C21.4484 35.5429 23.6523 35.3132 24.8719 33.8148L24.8828 33.8038L25.8617 34.6515C26.7312 35.3624 28.0164 35.2257 28.7219 34.3562L30.4391 32.2452L30.7344 32.4859C31.4836 33.0929 32.5883 32.9835 33.1953 32.2288L33.7148 31.589C34.3273 30.8343 34.2125 29.7351 33.4633 29.1226Z" fill="#29ACE4"/>
</g>
<defs>
<clipPath id="clip0_162_102">
<rect width="50" height="50" rx="8" fill="white"/>
</clipPath>
</defs>
</svg>
