<svg width="50" height="50" viewBox="0 0 50 50" fill="none" xmlns="http://www.w3.org/2000/svg">
<rect width="50" height="50" rx="8" fill="#FDF6E2"/>
<path d="M25.5001 10.4167C26.8068 10.4167 28.0726 10.5887 29.2772 10.911L26.1768 14.01C25.9415 14.2461 25.7341 14.5084 25.5584 14.7917H25.5001C23.4811 14.7917 21.5074 15.3904 19.8286 16.5121C18.1499 17.6338 16.8415 19.2281 16.0688 21.0934C15.2962 22.9588 15.094 25.0113 15.4879 26.9915C15.8818 28.9718 16.854 30.7907 18.2817 32.2184C19.7094 33.646 21.5283 34.6183 23.5085 35.0122C25.4888 35.4061 27.5413 35.2039 29.4066 34.4313C31.272 33.6586 32.8663 32.3502 33.988 30.6714C35.1097 28.9927 35.7084 27.019 35.7084 25V24.9417C35.9884 24.7667 36.2509 24.561 36.4886 24.3219L39.589 21.2229C39.9113 22.4275 40.0834 23.6933 40.0834 25C40.0834 33.0544 33.5545 39.5833 25.5001 39.5833C17.4457 39.5833 10.9167 33.0544 10.9167 25C10.9167 16.9456 17.4457 10.4167 25.5001 10.4167ZM24.8963 17.7331C24.8963 18.9742 24.8351 20.2327 24.9022 21.4723L24.1147 22.2598C23.8438 22.5307 23.6289 22.8523 23.4823 23.2062C23.3357 23.5602 23.2602 23.9395 23.2602 24.3226C23.2602 24.7057 23.3357 25.085 23.4823 25.439C23.6289 25.7929 23.8438 26.1145 24.1147 26.3854C24.3856 26.6563 24.7072 26.8712 25.0611 27.0178C25.415 27.1644 25.7944 27.2399 26.1775 27.2399C26.5606 27.2399 26.9399 27.1644 27.2939 27.0178C27.6478 26.8712 27.9694 26.6563 28.2403 26.3854L29.0278 25.5979C30.2674 25.665 31.5245 25.6037 32.767 25.6037C32.6518 26.9897 32.1426 28.3137 31.2996 29.4198C30.4566 30.5258 29.3149 31.3678 28.0091 31.8462C26.7033 32.3247 25.2879 32.4198 23.9299 32.1203C22.5718 31.8207 21.3277 31.1391 20.3444 30.1557C19.361 29.1723 18.6794 27.9283 18.3798 26.5702C18.0803 25.2122 18.1754 23.7968 18.6538 22.491C19.1323 21.1852 19.9742 20.0435 21.0803 19.2005C22.1864 18.3574 23.5104 17.8483 24.8963 17.7331ZM34.9851 10.6019C35.2513 10.7122 35.4788 10.899 35.6389 11.1385C35.7991 11.3781 35.8847 11.6597 35.8849 11.9479V14.6167H38.5522C38.8406 14.6167 39.1225 14.7023 39.3622 14.8625C39.602 15.0228 39.7889 15.2505 39.8992 15.517C40.0096 15.7834 40.0384 16.0766 39.9822 16.3594C39.9259 16.6423 39.7871 16.9021 39.5832 17.106L34.4251 22.2583C34.1517 22.5318 33.7808 22.6855 33.394 22.6856H29.8751L27.2093 25.3529C26.9356 25.6266 26.5645 25.7803 26.1775 25.7803C25.7905 25.7803 25.4194 25.6266 25.1457 25.3529C24.8721 25.0793 24.7183 24.7081 24.7183 24.3211C24.7183 23.9342 24.8721 23.563 25.1457 23.2894L27.813 20.625V17.1046C27.8129 16.9128 27.8505 16.7229 27.9238 16.5458C27.9972 16.3686 28.1047 16.2076 28.2403 16.0721L33.3955 10.9169C33.5994 10.7128 33.8593 10.5738 34.1423 10.5175C34.4252 10.4611 34.7185 10.49 34.9851 10.6004" fill="#EFB81D"/>
</svg>
