<svg width="1261" height="320" viewBox="0 0 1261 320" fill="none" xmlns="http://www.w3.org/2000/svg">
<path d="M529.5 115.3L575.118 -577H483.882L529.5 115.3Z" fill="#E0A910"/>
<path d="M529.5 235.7L575.118 928H483.882L529.5 235.7Z" fill="#E0A910"/>
<path d="M529.5 235.7L483.882 928H575.118L529.5 235.7Z" fill="#E0A910"/>
<path d="M529.5 115.3L483.882 -577H575.118L529.5 115.3Z" fill="#E0A910"/>
<path d="M589.7 175.5L1282 221.118V129.882L589.7 175.5Z" fill="#E0A910"/>
<path d="M469.3 175.5L-223 221.118L-223 129.882L469.3 175.5Z" fill="#E0A910"/>
<path d="M469.3 175.5L-223 129.882L-223 221.118L469.3 175.5Z" fill="#E0A910"/>
<path d="M589.7 175.5L1282 129.882V221.118L589.7 175.5Z" fill="#E0A910"/>
<path d="M486.932 132.932L29.6589 -388.854L-34.8546 -324.341L486.932 132.932Z" fill="#E0A910"/>
<path d="M572.068 218.068L1093.85 675.341L1029.34 739.854L572.068 218.068Z" fill="#E0A910"/>
<path d="M572.068 218.068L1029.34 739.854L1093.85 675.341L572.068 218.068Z" fill="#E0A910"/>
<path d="M486.932 132.932L-34.8546 -324.341L29.6589 -388.854L486.932 132.932Z" fill="#E0A910"/>
<path d="M572.068 132.932L1093.85 -324.341L1029.34 -388.854L572.068 132.932Z" fill="#E0A910"/>
<path d="M486.932 218.068L29.6589 739.854L-34.8546 675.341L486.932 218.068Z" fill="#E0A910"/>
<path d="M486.932 218.068L-34.8546 675.341L29.6589 739.854L486.932 218.068Z" fill="#E0A910"/>
<path d="M572.068 132.932L1029.34 -388.854L1093.85 -324.341L572.068 132.932Z" fill="#E0A910"/>
<path d="M545.081 117.351L768.325 -539.553L680.198 -563.166L545.081 117.351Z" fill="#E0A910"/>
<path d="M513.919 233.649L378.802 914.166L290.675 890.552L513.919 233.649Z" fill="#E0A910"/>
<path d="M513.919 233.649L290.675 890.552L378.802 914.166L513.919 233.649Z" fill="#E0A910"/>
<path d="M545.081 117.351L680.198 -563.166L768.325 -539.553L545.081 117.351Z" fill="#E0A910"/>
<path d="M587.649 191.081L1244.55 414.325L1268.17 326.198L587.649 191.081Z" fill="#E0A910"/>
<path d="M471.351 159.919L-209.166 24.8019L-185.552 -63.325L471.351 159.919Z" fill="#E0A910"/>
<path d="M471.351 159.919L-185.552 -63.325L-209.166 24.8019L471.351 159.919Z" fill="#E0A910"/>
<path d="M587.649 191.081L1268.17 326.198L1244.55 414.325L587.649 191.081Z" fill="#E0A910"/>
<path d="M499.4 123.365L192.756 -498.993L113.744 -453.375L499.4 123.365Z" fill="#E0A910"/>
<path d="M559.6 227.635L945.256 804.375L866.244 849.993L559.6 227.635Z" fill="#E0A910"/>
<path d="M559.6 227.635L866.244 849.993L945.256 804.375L559.6 227.635Z" fill="#E0A910"/>
<path d="M499.4 123.365L113.744 -453.375L192.756 -498.993L499.4 123.365Z" fill="#E0A910"/>
<path d="M581.635 145.4L1203.99 -161.244L1158.38 -240.256L581.635 145.4Z" fill="#E0A910"/>
<path d="M477.365 205.6L-99.3751 591.256L-144.993 512.244L477.365 205.6Z" fill="#E0A910"/>
<path d="M477.365 205.6L-144.993 512.244L-99.3751 591.256L477.365 205.6Z" fill="#E0A910"/>
<path d="M581.635 145.4L1158.38 -240.256L1203.99 -161.244L581.635 145.4Z" fill="#E0A910"/>
<path d="M559.6 123.365L945.256 -453.375L866.244 -498.993L559.6 123.365Z" fill="#E0A910"/>
<path d="M499.4 227.635L192.756 849.993L113.744 804.375L499.4 227.635Z" fill="#E0A910"/>
<path d="M499.4 227.635L113.744 804.375L192.756 849.993L499.4 227.635Z" fill="#E0A910"/>
<path d="M559.6 123.365L866.244 -498.993L945.256 -453.375L559.6 123.365Z" fill="#E0A910"/>
<path d="M581.635 205.6L1158.38 591.256L1203.99 512.244L581.635 205.6Z" fill="#E0A910"/>
<path d="M477.365 145.4L-144.993 -161.244L-99.3751 -240.256L477.365 145.4Z" fill="#E0A910"/>
<path d="M477.365 145.4L-99.3751 -240.256L-144.993 -161.244L477.365 145.4Z" fill="#E0A910"/>
<path d="M581.635 205.6L1203.99 512.244L1158.38 591.256L581.635 205.6Z" fill="#E0A910"/>
<path d="M513.919 117.352L378.802 -563.166L290.675 -539.552L513.919 117.352Z" fill="#E0A910"/>
<path d="M545.081 233.649L768.325 890.552L680.198 914.166L545.081 233.649Z" fill="#E0A910"/>
<path d="M545.081 233.649L680.198 914.166L768.325 890.552L545.081 233.649Z" fill="#E0A910"/>
<path d="M513.919 117.352L290.675 -539.552L378.802 -563.166L513.919 117.352Z" fill="#E0A910"/>
<path d="M587.649 159.919L1268.17 24.8021L1244.55 -63.325L587.649 159.919Z" fill="#E0A910"/>
<path d="M471.351 191.081L-185.552 414.325L-209.166 326.198L471.351 191.081Z" fill="#E0A910"/>
<path d="M471.351 191.081L-209.166 326.198L-185.552 414.325L471.351 191.081Z" fill="#E0A910"/>
<path d="M587.649 159.919L1244.55 -63.325L1268.17 24.8021L587.649 159.919Z" fill="#E0A910"/>
</svg>
