<svg width="405" height="256" viewBox="0 0 405 256" fill="none" xmlns="http://www.w3.org/2000/svg">
<path d="M100.175 279.841L118.614 0H81.7351L100.175 279.841Z" fill="#E2FEE9"/>
<path d="M100.175 328.509L118.614 608.349H81.7351L100.175 328.509Z" fill="#E2FEE9"/>
<path d="M100.175 328.509L81.7351 608.349H118.614L100.175 328.509Z" fill="#E2FEE9"/>
<path d="M100.175 279.841L81.7351 0H118.614L100.175 279.841Z" fill="#E2FEE9"/>
<path d="M124.509 304.175L404.349 322.614V285.735L124.509 304.175Z" fill="#E2FEE9"/>
<path d="M75.8408 304.175L-204 322.614L-204 285.735L75.8408 304.175Z" fill="#E2FEE9"/>
<path d="M75.8408 304.175L-204 285.735L-204 322.614L75.8408 304.175Z" fill="#E2FEE9"/>
<path d="M124.509 304.175L404.349 285.735V322.614L124.509 304.175Z" fill="#E2FEE9"/>
<path d="M82.968 286.968L-101.871 76.052L-127.948 102.13L82.968 286.968Z" fill="#E2FEE9"/>
<path d="M117.381 321.381L328.298 506.22L302.22 532.297L117.381 321.381Z" fill="#E2FEE9"/>
<path d="M117.381 321.381L302.22 532.297L328.298 506.22L117.381 321.381Z" fill="#E2FEE9"/>
<path d="M82.968 286.968L-127.948 102.13L-101.871 76.052L82.968 286.968Z" fill="#E2FEE9"/>
<path d="M117.381 286.968L328.298 102.13L302.22 76.052L117.381 286.968Z" fill="#E2FEE9"/>
<path d="M82.968 321.381L-101.871 532.297L-127.948 506.22L82.968 321.381Z" fill="#E2FEE9"/>
<path d="M82.968 321.381L-127.948 506.22L-101.871 532.297L82.968 321.381Z" fill="#E2FEE9"/>
<path d="M117.381 286.968L302.22 76.052L328.298 102.13L117.381 286.968Z" fill="#E2FEE9"/>
<path d="M106.473 280.67L196.712 15.137L161.09 5.59194L106.473 280.67Z" fill="#E2FEE9"/>
<path d="M93.8766 327.68L39.2598 602.758L3.63722 593.212L93.8766 327.68Z" fill="#E2FEE9"/>
<path d="M93.8766 327.68L3.63722 593.212L39.2598 602.758L93.8766 327.68Z" fill="#E2FEE9"/>
<path d="M106.473 280.67L161.09 5.59194L196.712 15.137L106.473 280.67Z" fill="#E2FEE9"/>
<path d="M123.68 310.473L389.212 400.712L398.758 365.09L123.68 310.473Z" fill="#E2FEE9"/>
<path d="M76.6699 297.877L-198.408 243.26L-188.863 207.637L76.6699 297.877Z" fill="#E2FEE9"/>
<path d="M76.6699 297.877L-188.863 207.637L-198.408 243.26L76.6699 297.877Z" fill="#E2FEE9"/>
<path d="M123.68 310.473L398.758 365.09L389.212 400.712L123.68 310.473Z" fill="#E2FEE9"/>
<path d="M88.0078 283.101L-35.9435 31.5319L-67.8818 49.9716L88.0078 283.101Z" fill="#E2FEE9"/>
<path d="M112.342 325.249L268.231 558.378L236.293 576.818L112.342 325.249Z" fill="#E2FEE9"/>
<path d="M112.342 325.249L236.293 576.818L268.231 558.378L112.342 325.249Z" fill="#E2FEE9"/>
<path d="M88.0078 283.101L-67.8818 49.9716L-35.9435 31.5319L88.0078 283.101Z" fill="#E2FEE9"/>
<path d="M121.249 292.008L372.818 168.057L354.378 136.118L121.249 292.008Z" fill="#E2FEE9"/>
<path d="M79.1009 316.342L-154.028 472.231L-172.468 440.293L79.1009 316.342Z" fill="#E2FEE9"/>
<path d="M79.1009 316.342L-172.468 440.293L-154.028 472.231L79.1009 316.342Z" fill="#E2FEE9"/>
<path d="M121.249 292.008L354.378 136.118L372.818 168.057L121.249 292.008Z" fill="#E2FEE9"/>
<path d="M112.342 283.101L268.231 49.9714L236.293 31.5318L112.342 283.101Z" fill="#E2FEE9"/>
<path d="M88.0078 325.249L-35.9435 576.818L-67.8818 558.378L88.0078 325.249Z" fill="#E2FEE9"/>
<path d="M88.0078 325.249L-67.8818 558.378L-35.9435 576.818L88.0078 325.249Z" fill="#E2FEE9"/>
<path d="M112.342 283.101L236.293 31.5318L268.231 49.9714L112.342 283.101Z" fill="#E2FEE9"/>
<path d="M121.249 316.342L354.378 472.231L372.818 440.293L121.249 316.342Z" fill="#E2FEE9"/>
<path d="M79.1009 292.008L-172.468 168.057L-154.028 136.118L79.1009 292.008Z" fill="#E2FEE9"/>
<path d="M79.1009 292.008L-154.028 136.118L-172.468 168.057L79.1009 292.008Z" fill="#E2FEE9"/>
<path d="M121.249 316.342L372.818 440.293L354.378 472.231L121.249 316.342Z" fill="#E2FEE9"/>
<path d="M93.8766 280.67L39.2598 5.59209L3.63722 15.1371L93.8766 280.67Z" fill="#E2FEE9"/>
<path d="M106.473 327.679L196.712 593.212L161.09 602.757L106.473 327.679Z" fill="#E2FEE9"/>
<path d="M106.473 327.679L161.09 602.757L196.712 593.212L106.473 327.679Z" fill="#E2FEE9"/>
<path d="M93.8766 280.67L3.63722 15.1371L39.2598 5.59209L93.8766 280.67Z" fill="#E2FEE9"/>
<path d="M123.68 297.877L398.757 243.26L389.212 207.637L123.68 297.877Z" fill="#E2FEE9"/>
<path d="M76.67 310.473L-188.863 400.712L-198.408 365.09L76.67 310.473Z" fill="#E2FEE9"/>
<path d="M76.67 310.473L-198.408 365.09L-188.863 400.712L76.67 310.473Z" fill="#E2FEE9"/>
<path d="M123.68 297.877L389.212 207.637L398.757 243.26L123.68 297.877Z" fill="#E2FEE9"/>
</svg>
